<svg xmlns="http://www.w3.org/2000/svg" width="2560" height="1440" viewBox="0 0 2560 1440">
<defs>
  <linearGradient id="sky" x1="0" y1="0" x2="0" y2="1">
    <stop offset="0" stop-color="#111e35"/><stop offset=".20" stop-color="#22304c"/>
    <stop offset=".42" stop-color="#465066"/><stop offset=".60" stop-color="#7d6c74"/>
    <stop offset=".76" stop-color="#c08d69"/><stop offset=".88" stop-color="#e5ac77"/>
    <stop offset=".96" stop-color="#f2c793"/><stop offset="1" stop-color="#f8dcae"/>
  </linearGradient>
  <linearGradient id="sea" x1="0" y1="0" x2="0" y2="1">
    <stop offset="0" stop-color="#a2907f"/><stop offset=".05" stop-color="#7e7377"/>
    <stop offset=".18" stop-color="#57607a"/><stop offset=".42" stop-color="#313c55"/>
    <stop offset=".75" stop-color="#1c2436"/><stop offset="1" stop-color="#121927"/>
  </linearGradient>
  <radialGradient id="glowA" cx=".5" cy=".5" r=".5">
    <stop offset="0" stop-color="#fff4d8" stop-opacity=".97"/>
    <stop offset=".32" stop-color="#ffdca6" stop-opacity=".5"/>
    <stop offset="1" stop-color="#ffb877" stop-opacity="0"/>
  </radialGradient>
  <radialGradient id="glowB" cx=".5" cy=".5" r=".5">
    <stop offset="0" stop-color="#ffd9a4" stop-opacity=".42"/>
    <stop offset="1" stop-color="#e79a5c" stop-opacity="0"/>
  </radialGradient>
  <linearGradient id="sunlane" x1="0" y1="0" x2="0" y2="1">
    <stop offset="0" stop-color="#ffe2b0" stop-opacity=".55"/>
    <stop offset=".35" stop-color="#f6c489" stop-opacity=".22"/>
    <stop offset="1" stop-color="#e8a86c" stop-opacity=".05"/>
  </linearGradient>
  <linearGradient id="leftfall" x1="0" y1="0" x2="1" y2="0">
    <stop offset="0" stop-color="#0b1a2d" stop-opacity=".42"/>
    <stop offset=".28" stop-color="#0b1a2d" stop-opacity=".24"/>
    <stop offset=".56" stop-color="#0b1a2d" stop-opacity="0"/>
  </linearGradient>
  <radialGradient id="vig" cx=".52" cy=".46" r=".8">
    <stop offset=".52" stop-color="#000" stop-opacity="0"/>
    <stop offset="1" stop-color="#000" stop-opacity=".44"/>
  </radialGradient>
  <linearGradient id="hullg" x1="0" y1="0" x2="0" y2="1">
    <stop offset="0" stop-color="#4a3b30"/><stop offset=".30" stop-color="#2a2a2f"/>
    <stop offset=".70" stop-color="#1a2028"/><stop offset="1" stop-color="#10161f"/>
  </linearGradient>
  <linearGradient id="hulllight" x1="0" y1="0" x2="1" y2="0">
    <stop offset="0" stop-color="#000" stop-opacity=".38"/>
    <stop offset=".55" stop-color="#000" stop-opacity="0"/>
    <stop offset="1" stop-color="#ffc98a" stop-opacity=".22"/>
  </linearGradient>
  <linearGradient id="fgfall" x1="0" y1="1" x2="0" y2="0">
    <stop offset="0" stop-color="#0c1220" stop-opacity=".72"/>
    <stop offset="1" stop-color="#0c1220" stop-opacity="0"/>
  </linearGradient>
  <linearGradient id="deckg" x1="0" y1="0" x2="1" y2="0">
    <stop offset="0" stop-color="#4a2f1e" stop-opacity=".3"/>
    <stop offset=".5" stop-color="#6b4527" stop-opacity=".42"/>
    <stop offset="1" stop-color="#a9723d" stop-opacity=".58"/>
  </linearGradient>
  <linearGradient id="glassg" x1="0" y1="0" x2="1" y2="1">
    <stop offset="0" stop-color="#2a3340" stop-opacity=".7"/>
    <stop offset=".55" stop-color="#7d7566" stop-opacity=".5"/>
    <stop offset="1" stop-color="#f6cd93" stop-opacity=".62"/>
  </linearGradient>
  <linearGradient id="rim" x1="0" y1="0" x2="1" y2="0">
    <stop offset="0" stop-color="#ffdcaa" stop-opacity=".10"/>
    <stop offset=".30" stop-color="#ffdcaa" stop-opacity=".30"/>
    <stop offset=".62" stop-color="#ffe6bd" stop-opacity=".6"/>
    <stop offset="1" stop-color="#ffeecf" stop-opacity=".8"/>
  </linearGradient>
  <filter id="b2"><feGaussianBlur stdDeviation="2.2"/></filter>
  <filter id="b4"><feGaussianBlur stdDeviation="4"/></filter>
  <filter id="b8"><feGaussianBlur stdDeviation="8"/></filter>
  <filter id="b18"><feGaussianBlur stdDeviation="18"/></filter>
  <filter id="b30"><feGaussianBlur stdDeviation="30"/></filter>
  <filter id="refl"><feGaussianBlur stdDeviation="6 14"/></filter>
  <filter id="grain" x="0" y="0" width="100%" height="100%">
    <feTurbulence type="fractalNoise" baseFrequency="0.92" numOctaves="3" seed="19" result="n"/>
    <feColorMatrix in="n" type="matrix"
      values="0 0 0 0 .5  0 0 0 0 .5  0 0 0 0 .5  .33 .33 .33 0 0"/>
  </filter>
  <clipPath id="seaclip"><rect x="0" y="782.0" width="2560" height="658.0"/></clipPath>
</defs>

<rect width="2560" height="786.0" fill="url(#sky)"/>
<ellipse cx="1836.0" cy="736.0" rx="900" ry="470" fill="url(#glowB)"/>
<ellipse cx="1836.0" cy="736.0" rx="360" ry="264" fill="url(#glowA)"/>
<circle cx="1836.0" cy="736.0" r="49" fill="#fff6e0" opacity=".93" filter="url(#b4)"/>

<!-- wispy cloud bands, tilted and uneven -->
<g filter="url(#b30)">
  <path d="M -100 300 C 400 250 900 288 1500 236 C 1900 202 2200 224 2660 190" fill="none" stroke="#8b90ab" stroke-width="46" opacity=".34"/>
  <path d="M -100 430 C 500 402 1000 432 1600 392 C 2000 366 2300 380 2660 350" fill="none" stroke="#a6949c" stroke-width="30" opacity=".3"/>
  <path d="M 400 560 C 900 540 1400 566 1900 536 C 2200 518 2450 526 2660 512" fill="none" stroke="#dda478" stroke-width="34" opacity=".38"/>
  <path d="M -100 640 C 500 628 1100 648 1700 626 C 2100 612 2400 618 2660 606" fill="none" stroke="#eebb8b" stroke-width="24" opacity=".34"/>
</g>

<!-- slopes -->
<g filter="url(#b4)" opacity=".5"><path d="M -20 786.000000 L -20 716 C 130 700 240 672 400 662 C 540 654 640 690 780 700 C 900 708 990 668 1130 656 C 1270 644 1350 690 1490 700 C 1650 711 1770 664 1930 640 C 2130 610 2330 566 2580 512 L 2580 786.000000 Z" fill="#8b92b0"/></g>
<g filter="url(#b8)" opacity=".42"><path d="M -20 786.000000 L -20 690 C 90 668 180 640 300 636 C 420 632 470 682 590 706 C 700 728 790 756 900 772 L 900 786.000000 Z" fill="#7d85a4"/></g>
<g filter="url(#b2)" opacity=".76"><path d="M -20 786.000000 L -20 764 C 120 748 230 722 380 730 C 500 736 560 764 690 772 C 800 778 900 770 1010 774 C 1090 777 1140 779 1210 780 L 1210 786.000000 Z" fill="#4b5169"/></g>
<g filter="url(#b2)" opacity=".8"><path d="M -20 786.000000 L -20 752 C 170 736 300 706 470 700 C 620 695 700 730 850 742 C 1000 754 1130 720 1300 716 C 1450 713 1560 742 1700 740 C 1850 738 1960 700 2110 672 C 2280 640 2400 596 2580 590 L 2580 786.000000 Z" fill="#545a72"/></g>
<g filter="url(#b2)" opacity=".88"><path d="M 2580 786.000000 L 2580 560 C 2470 586 2382 640 2300 706 C 2246 748 2190 772 2118 780 L 2580 786.000000 Z" fill="#3f4457"/></g>
<g opacity=".93"><path d="M 2580 786.000000 L 2580 402 C 2430 452 2318 528 2214 620 C 2140 686 2058 742 1958 772 C 1930 780 1918 781 1904 782 L 2580 786.000000 Z" fill="#2b3040"/></g>
<g><rect x="2060" y="764.8" width="14" height="13.2" fill="#33303c" opacity="0.42"/><rect x="2085" y="761.8" width="13" height="12.8" fill="#33303c" opacity="0.40"/><rect x="2087" y="758.8" width="9" height="3.4" fill="#413a44" opacity=".5"/><rect x="2110" y="755.8" width="13" height="15.4" fill="#33303c" opacity="0.28"/><rect x="2135" y="750.9" width="11" height="16.9" fill="#33303c" opacity="0.29"/><rect x="2137" y="747.9" width="8" height="3.4" fill="#413a44" opacity=".5"/><rect x="2160" y="755.5" width="15" height="8.9" fill="#33303c" opacity="0.28"/><rect x="2162" y="752.5" width="11" height="3.4" fill="#413a44" opacity=".5"/><path d="M 2031 780 C 2027 770 2028 761 2031 758 C 2034 761 2036 770 2031 780 Z" fill="#292830" opacity="0.48"/><path d="M 2049 778 C 2044 768 2046 759 2049 756 C 2052 759 2053 768 2049 778 Z" fill="#292830" opacity="0.31"/><path d="M 2076 775 C 2072 770 2073 766 2076 763 C 2079 766 2081 770 2076 775 Z" fill="#292830" opacity="0.50"/><path d="M 2101 773 C 2097 765 2098 758 2101 755 C 2104 758 2106 765 2101 773 Z" fill="#292830" opacity="0.44"/><path d="M 2109 771 C 2104 764 2106 758 2109 755 C 2112 758 2113 764 2109 771 Z" fill="#292830" opacity="0.31"/><path d="M 2133 768 C 2128 763 2130 759 2133 756 C 2136 759 2137 763 2133 768 Z" fill="#292830" opacity="0.28"/></g>
<rect x="0" y="682.0" width="2560" height="112" fill="#f5d3a6" opacity=".1" filter="url(#b30)"/>

<rect y="782.0" width="2560" height="658.0" fill="url(#sea)"/>
<g clip-path="url(#seaclip)">
  <g filter="url(#b30)">
    <ellipse cx="1836.0" cy="852.0" rx="150" ry="72" fill="#ffdcab" opacity=".34"/>
    <ellipse cx="1836.0" cy="1012.0" rx="290" ry="180" fill="#f3c48c" opacity=".2"/>
    <ellipse cx="1806.0" cy="1252.0" rx="440" ry="230" fill="#e2ab74" opacity=".12"/>
  </g>
  <ellipse cx="1836.0" cy="790.0" rx="300" ry="26" fill="#ffe4b8" opacity=".5" filter="url(#b8)"/>
  <path d="M 2034 785.0 Q 2157 782.9 2280 785.0" fill="none" stroke="#c3cfe0" stroke-width="1.0" opacity="0.129" stroke-linecap="round"/><path d="M -175 787.3 Q 11 789.4 198 787.3" fill="none" stroke="#c3cfe0" stroke-width="1.0" opacity="0.040" stroke-linecap="round"/><path d="M 1491 787.3 Q 1636 785.2 1781 787.3" fill="none" stroke="#c3cfe0" stroke-width="1.0" opacity="0.034" stroke-linecap="round"/><path d="M 1004 789.7 Q 1220 787.5 1435 789.7" fill="none" stroke="#e2c7a8" stroke-width="1.1" opacity="0.057" stroke-linecap="round"/><path d="M 1863 789.7 Q 2013 791.9 2163 789.7" fill="none" stroke="#aebbd0" stroke-width="1.0" opacity="0.072" stroke-linecap="round"/><path d="M 89 792.3 Q 166 794.5 243 792.3" fill="none" stroke="#aebbd0" stroke-width="1.0" opacity="0.079" stroke-linecap="round"/><path d="M 2328 794.9 Q 2557 797.2 2787 794.9" fill="none" stroke="#c3cfe0" stroke-width="1.0" opacity="0.113" stroke-linecap="round"/><path d="M 1092 794.9 Q 1147 792.6 1203 794.9" fill="none" stroke="#aebbd0" stroke-width="1.0" opacity="0.109" stroke-linecap="round"/><path d="M 1179 797.7 Q 1258 800.1 1336 797.7" fill="none" stroke="#e2c7a8" stroke-width="1.0" opacity="0.083" stroke-linecap="round"/><path d="M 26 797.7 Q 259 795.3 491 797.7" fill="none" stroke="#c3cfe0" stroke-width="1.0" opacity="0.058" stroke-linecap="round"/><path d="M 1821 800.6 Q 1976 803.1 2131 800.6" fill="none" stroke="#e2c7a8" stroke-width="1.0" opacity="0.065" stroke-linecap="round"/><path d="M -106 800.6 Q 56 803.1 217 800.6" fill="none" stroke="#aebbd0" stroke-width="1.0" opacity="0.062" stroke-linecap="round"/><path d="M 373 803.7 Q 629 801.1 886 803.7" fill="none" stroke="#c3cfe0" stroke-width="1.0" opacity="0.046" stroke-linecap="round"/><path d="M 1646 803.7 Q 1709 806.2 1772 803.7" fill="none" stroke="#aebbd0" stroke-width="1.0" opacity="0.126" stroke-linecap="round"/><path d="M 2400 806.9 Q 2661 804.3 2921 806.9" fill="none" stroke="#c3cfe0" stroke-width="1.0" opacity="0.070" stroke-linecap="round"/><path d="M 1176 810.2 Q 1229 812.9 1282 810.2" fill="none" stroke="#c3cfe0" stroke-width="1.3" opacity="0.121" stroke-linecap="round"/><path d="M 2043 810.2 Q 2151 807.5 2259 810.2" fill="none" stroke="#c3cfe0" stroke-width="1.2" opacity="0.041" stroke-linecap="round"/><path d="M 674 813.7 Q 904 816.5 1133 813.7" fill="none" stroke="#aebbd0" stroke-width="1.1" opacity="0.107" stroke-linecap="round"/><path d="M 438 813.7 Q 659 816.5 881 813.7" fill="none" stroke="#aebbd0" stroke-width="1.2" opacity="0.117" stroke-linecap="round"/><path d="M 1407 817.4 Q 1555 820.3 1703 817.4" fill="none" stroke="#e2c7a8" stroke-width="1.3" opacity="0.124" stroke-linecap="round"/><path d="M 2122 817.4 Q 2241 814.6 2360 817.4" fill="none" stroke="#aebbd0" stroke-width="1.0" opacity="0.107" stroke-linecap="round"/><path d="M 88 821.3 Q 163 818.3 239 821.3" fill="none" stroke="#aebbd0" stroke-width="1.0" opacity="0.074" stroke-linecap="round"/><path d="M 1237 821.3 Q 1328 824.2 1420 821.3" fill="none" stroke="#e2c7a8" stroke-width="1.2" opacity="0.121" stroke-linecap="round"/><path d="M 1898 825.3 Q 2121 822.3 2344 825.3" fill="none" stroke="#e2c7a8" stroke-width="1.2" opacity="0.065" stroke-linecap="round"/><path d="M 2489 825.3 Q 2593 822.3 2698 825.3" fill="none" stroke="#aebbd0" stroke-width="1.1" opacity="0.080" stroke-linecap="round"/><path d="M 113 829.6 Q 380 832.7 647 829.6" fill="none" stroke="#c3cfe0" stroke-width="1.0" opacity="0.040" stroke-linecap="round"/><path d="M 1191 829.6 Q 1383 826.4 1574 829.6" fill="none" stroke="#e2c7a8" stroke-width="1.1" opacity="0.094" stroke-linecap="round"/><path d="M 1479 834.0 Q 1755 830.7 2032 834.0" fill="none" stroke="#c3cfe0" stroke-width="1.1" opacity="0.037" stroke-linecap="round"/><path d="M 2407 838.7 Q 2686 842.0 2965 838.7" fill="none" stroke="#e2c7a8" stroke-width="1.4" opacity="0.092" stroke-linecap="round"/><path d="M 1953 838.7 Q 2020 842.0 2087 838.7" fill="none" stroke="#c3cfe0" stroke-width="1.0" opacity="0.039" stroke-linecap="round"/><path d="M 214 843.5 Q 287 840.1 361 843.5" fill="none" stroke="#e2c7a8" stroke-width="1.5" opacity="0.079" stroke-linecap="round"/><path d="M 1650 848.7 Q 1929 852.3 2208 848.7" fill="none" stroke="#aebbd0" stroke-width="1.0" opacity="0.121" stroke-linecap="round"/><path d="M 1249 848.7 Q 1352 852.3 1454 848.7" fill="none" stroke="#c3cfe0" stroke-width="1.2" opacity="0.055" stroke-linecap="round"/><path d="M 2036 854.0 Q 2120 857.8 2204 854.0" fill="none" stroke="#e2c7a8" stroke-width="1.5" opacity="0.118" stroke-linecap="round"/><path d="M 2065 859.6 Q 2181 863.5 2297 859.6" fill="none" stroke="#aebbd0" stroke-width="1.3" opacity="0.120" stroke-linecap="round"/><path d="M 1958 859.6 Q 2053 863.5 2147 859.6" fill="none" stroke="#aebbd0" stroke-width="1.1" opacity="0.103" stroke-linecap="round"/><path d="M -55 865.5 Q 10 861.5 75 865.5" fill="none" stroke="#c3cfe0" stroke-width="1.7" opacity="0.097" stroke-linecap="round"/><path d="M -45 871.7 Q 220 867.5 485 871.7" fill="none" stroke="#c3cfe0" stroke-width="1.6" opacity="0.054" stroke-linecap="round"/><path d="M 2540 871.7 Q 2715 875.9 2891 871.7" fill="none" stroke="#c3cfe0" stroke-width="1.2" opacity="0.050" stroke-linecap="round"/><path d="M 1560 878.2 Q 1876 873.8 2191 878.2" fill="none" stroke="#f2d5ab" stroke-width="1.7" opacity="0.225" stroke-linecap="round"/><path d="M 205 878.2 Q 527 882.5 849 878.2" fill="none" stroke="#e2c7a8" stroke-width="1.0" opacity="0.094" stroke-linecap="round"/><path d="M 1397 885.0 Q 1670 880.4 1943 885.0" fill="none" stroke="#e2c7a8" stroke-width="1.7" opacity="0.044" stroke-linecap="round"/><path d="M 708 892.1 Q 1064 887.4 1420 892.1" fill="none" stroke="#e2c7a8" stroke-width="1.6" opacity="0.079" stroke-linecap="round"/><path d="M 1334 892.1 Q 1572 896.7 1810 892.1" fill="none" stroke="#c3cfe0" stroke-width="1.1" opacity="0.088" stroke-linecap="round"/><path d="M 1100 899.5 Q 1436 904.4 1772 899.5" fill="none" stroke="#aebbd0" stroke-width="1.8" opacity="0.110" stroke-linecap="round"/><path d="M 355 899.5 Q 591 904.4 827 899.5" fill="none" stroke="#aebbd0" stroke-width="1.0" opacity="0.105" stroke-linecap="round"/><path d="M 393 907.3 Q 600 902.3 807 907.3" fill="none" stroke="#e2c7a8" stroke-width="1.4" opacity="0.034" stroke-linecap="round"/><path d="M 2244 907.3 Q 2442 912.3 2641 907.3" fill="none" stroke="#aebbd0" stroke-width="1.8" opacity="0.063" stroke-linecap="round"/><path d="M 637 915.5 Q 808 920.7 979 915.5" fill="none" stroke="#aebbd0" stroke-width="1.5" opacity="0.063" stroke-linecap="round"/><path d="M 1575 924.0 Q 1781 929.5 1987 924.0" fill="none" stroke="#f2d5ab" stroke-width="1.5" opacity="0.064" stroke-linecap="round"/><path d="M 2024 924.0 Q 2095 929.5 2166 924.0" fill="none" stroke="#e2c7a8" stroke-width="1.3" opacity="0.092" stroke-linecap="round"/><path d="M 1794 933.0 Q 2027 938.7 2260 933.0" fill="none" stroke="#c3cfe0" stroke-width="1.6" opacity="0.041" stroke-linecap="round"/><path d="M 883 942.4 Q 1068 948.3 1253 942.4" fill="none" stroke="#c3cfe0" stroke-width="2.0" opacity="0.062" stroke-linecap="round"/><path d="M 2028 952.3 Q 2174 958.4 2319 952.3" fill="none" stroke="#aebbd0" stroke-width="1.5" opacity="0.032" stroke-linecap="round"/><path d="M 1662 952.3 Q 1805 946.2 1949 952.3" fill="none" stroke="#f2d5ab" stroke-width="2.0" opacity="0.151" stroke-linecap="round"/><path d="M 1782 962.6 Q 2153 969.0 2523 962.6" fill="none" stroke="#aebbd0" stroke-width="1.7" opacity="0.102" stroke-linecap="round"/><path d="M 2217 962.6 Q 2356 956.2 2494 962.6" fill="none" stroke="#e2c7a8" stroke-width="2.1" opacity="0.081" stroke-linecap="round"/><path d="M 1964 973.5 Q 2126 966.8 2287 973.5" fill="none" stroke="#c3cfe0" stroke-width="2.1" opacity="0.047" stroke-linecap="round"/><path d="M 1799 973.5 Q 2045 980.1 2292 973.5" fill="none" stroke="#e2c7a8" stroke-width="1.5" opacity="0.074" stroke-linecap="round"/><path d="M 716 984.8 Q 1083 991.7 1450 984.8" fill="none" stroke="#c3cfe0" stroke-width="2.1" opacity="0.072" stroke-linecap="round"/><path d="M 1046 996.7 Q 1459 1003.9 1873 996.7" fill="none" stroke="#aebbd0" stroke-width="2.5" opacity="0.035" stroke-linecap="round"/><path d="M 1617 996.7 Q 1736 1003.9 1856 996.7" fill="none" stroke="#f2d5ab" stroke-width="2.0" opacity="0.120" stroke-linecap="round"/><path d="M 1384 1009.2 Q 1500 1001.7 1617 1009.2" fill="none" stroke="#e2c7a8" stroke-width="2.1" opacity="0.045" stroke-linecap="round"/><path d="M 2317 1009.2 Q 2808 1001.7 3298 1009.2" fill="none" stroke="#e2c7a8" stroke-width="1.5" opacity="0.103" stroke-linecap="round"/><path d="M 857 1022.2 Q 1292 1014.4 1727 1022.2" fill="none" stroke="#aebbd0" stroke-width="1.4" opacity="0.080" stroke-linecap="round"/><path d="M 862 1035.9 Q 1016 1044.1 1171 1035.9" fill="none" stroke="#c3cfe0" stroke-width="2.3" opacity="0.102" stroke-linecap="round"/><path d="M 1316 1035.9 Q 1723 1044.1 2131 1035.9" fill="none" stroke="#f2d5ab" stroke-width="2.7" opacity="0.099" stroke-linecap="round"/><path d="M 1368 1050.3 Q 1500 1041.8 1632 1050.3" fill="none" stroke="#c3cfe0" stroke-width="2.8" opacity="0.030" stroke-linecap="round"/><path d="M 351 1050.3 Q 711 1041.8 1071 1050.3" fill="none" stroke="#aebbd0" stroke-width="2.1" opacity="0.075" stroke-linecap="round"/><path d="M 311 1065.3 Q 472 1056.4 633 1065.3" fill="none" stroke="#c3cfe0" stroke-width="1.4" opacity="0.082" stroke-linecap="round"/><path d="M -149 1065.3 Q 13 1074.2 175 1065.3" fill="none" stroke="#e2c7a8" stroke-width="2.1" opacity="0.101" stroke-linecap="round"/><path d="M 2427 1081.1 Q 2529 1071.8 2631 1081.1" fill="none" stroke="#e2c7a8" stroke-width="2.7" opacity="0.071" stroke-linecap="round"/><path d="M 276 1081.1 Q 662 1090.4 1048 1081.1" fill="none" stroke="#c3cfe0" stroke-width="2.7" opacity="0.102" stroke-linecap="round"/><path d="M 1477 1097.6 Q 1653 1107.3 1829 1097.6" fill="none" stroke="#f2d5ab" stroke-width="2.5" opacity="0.159" stroke-linecap="round"/><path d="M 677 1114.9 Q 1154 1104.8 1631 1114.9" fill="none" stroke="#c3cfe0" stroke-width="1.9" opacity="0.066" stroke-linecap="round"/><path d="M 117 1114.9 Q 367 1125.0 616 1114.9" fill="none" stroke="#aebbd0" stroke-width="1.9" opacity="0.041" stroke-linecap="round"/><path d="M 2192 1133.1 Q 2419 1122.5 2646 1133.1" fill="none" stroke="#e2c7a8" stroke-width="2.1" opacity="0.051" stroke-linecap="round"/><path d="M 2470 1133.1 Q 2912 1143.6 3353 1133.1" fill="none" stroke="#c3cfe0" stroke-width="2.6" opacity="0.045" stroke-linecap="round"/><path d="M 443 1152.1 Q 696 1141.1 948 1152.1" fill="none" stroke="#aebbd0" stroke-width="3.2" opacity="0.064" stroke-linecap="round"/><path d="M 1959 1152.1 Q 2516 1163.1 3072 1152.1" fill="none" stroke="#c3cfe0" stroke-width="2.0" opacity="0.089" stroke-linecap="round"/><path d="M 2445 1172.0 Q 2998 1183.5 3551 1172.0" fill="none" stroke="#c3cfe0" stroke-width="1.9" opacity="0.026" stroke-linecap="round"/><path d="M 2076 1192.9 Q 2642 1180.9 3209 1192.9" fill="none" stroke="#c3cfe0" stroke-width="3.8" opacity="0.072" stroke-linecap="round"/><path d="M 999 1192.9 Q 1657 1180.9 2315 1192.9" fill="none" stroke="#f2d5ab" stroke-width="1.9" opacity="0.130" stroke-linecap="round"/><path d="M 375 1214.8 Q 815 1202.2 1255 1214.8" fill="none" stroke="#c3cfe0" stroke-width="3.3" opacity="0.065" stroke-linecap="round"/><path d="M 1210 1214.8 Q 1351 1227.3 1493 1214.8" fill="none" stroke="#aebbd0" stroke-width="3.0" opacity="0.051" stroke-linecap="round"/><path d="M -167 1237.7 Q 90 1224.6 347 1237.7" fill="none" stroke="#e2c7a8" stroke-width="3.3" opacity="0.081" stroke-linecap="round"/><path d="M 1797 1237.7 Q 2442 1224.6 3087 1237.7" fill="none" stroke="#c3cfe0" stroke-width="2.4" opacity="0.044" stroke-linecap="round"/><path d="M 940 1261.7 Q 1410 1248.1 1880 1261.7" fill="none" stroke="#aebbd0" stroke-width="2.2" opacity="0.046" stroke-linecap="round"/><path d="M 1523 1286.9 Q 1829 1272.6 2135 1286.9" fill="none" stroke="#f2d5ab" stroke-width="4.0" opacity="0.092" stroke-linecap="round"/><path d="M 2055 1313.3 Q 2321 1328.2 2588 1313.3" fill="none" stroke="#c3cfe0" stroke-width="3.3" opacity="0.078" stroke-linecap="round"/><path d="M 708 1313.3 Q 954 1328.2 1200 1313.3" fill="none" stroke="#aebbd0" stroke-width="3.1" opacity="0.079" stroke-linecap="round"/><path d="M 2381 1341.0 Q 2963 1325.4 3545 1341.0" fill="none" stroke="#aebbd0" stroke-width="3.4" opacity="0.029" stroke-linecap="round"/><path d="M 1294 1370.0 Q 1763 1386.3 2232 1370.0" fill="none" stroke="#f2d5ab" stroke-width="3.3" opacity="0.110" stroke-linecap="round"/><path d="M 848 1370.0 Q 1078 1386.3 1309 1370.0" fill="none" stroke="#c3cfe0" stroke-width="4.6" opacity="0.065" stroke-linecap="round"/><path d="M 1584 1400.4 Q 2085 1417.4 2587 1400.4" fill="none" stroke="#f2d5ab" stroke-width="3.0" opacity="0.142" stroke-linecap="round"/><path d="M 752 1400.4 Q 1649 1383.3 2546 1400.4" fill="none" stroke="#f2d5ab" stroke-width="3.9" opacity="0.136" stroke-linecap="round"/><path d="M 1225 1432.2 Q 1517 1414.4 1809 1432.2" fill="none" stroke="#f2d5ab" stroke-width="5.2" opacity="0.144" stroke-linecap="round"/><path d="M 1469 1432.2 Q 1762 1450.0 2055 1432.2" fill="none" stroke="#f2d5ab" stroke-width="4.8" opacity="0.076" stroke-linecap="round"/>
  <g filter="url(#b4)" opacity=".5">
    <path d="M -60 980 C 300 972 620 992 940 984" fill="none" stroke="#9fb0c8" stroke-width="3" opacity=".16"/>
    <path d="M -60 1130 C 260 1120 560 1146 900 1134" fill="none" stroke="#b6c2d6" stroke-width="4" opacity=".13"/>
    <path d="M -60 1310 C 220 1296 520 1330 860 1314" fill="none" stroke="#8fa0ba" stroke-width="5" opacity=".11"/>
    <path d="M 120 880 C 380 876 600 888 820 882" fill="none" stroke="#aebcd2" stroke-width="2.2" opacity=".14"/>
  </g>
  <g filter="url(#b2)"><ellipse cx="1839.5" cy="785.0" rx="4.7" ry="0.55" fill="#ffc98c" opacity="0.287"/><ellipse cx="1830.0" cy="785.1" rx="1.7" ry="0.56" fill="#ffd8a4" opacity="0.469"/><ellipse cx="1833.1" cy="785.2" rx="2.9" ry="0.52" fill="#f6b97e" opacity="0.505"/><ellipse cx="1822.7" cy="785.4" rx="2.8" ry="0.46" fill="#fff6e2" opacity="0.644"/><ellipse cx="1844.9" cy="785.6" rx="4.3" ry="0.45" fill="#f6b97e" opacity="0.494"/><ellipse cx="1832.7" cy="785.8" rx="3.9" ry="0.45" fill="#ffd8a4" opacity="0.200"/><ellipse cx="1843.1" cy="786.1" rx="2.9" ry="0.45" fill="#ffd8a4" opacity="0.601"/><ellipse cx="1833.5" cy="786.5" rx="3.0" ry="0.48" fill="#ffc98c" opacity="0.444"/><ellipse cx="1840.6" cy="786.9" rx="3.3" ry="0.45" fill="#ffe9c2" opacity="0.367"/><ellipse cx="1827.9" cy="787.3" rx="2.0" ry="0.51" fill="#ffc98c" opacity="0.525"/><ellipse cx="1835.0" cy="787.7" rx="2.2" ry="0.58" fill="#f6b97e" opacity="0.589"/><ellipse cx="1845.5" cy="788.2" rx="2.0" ry="0.45" fill="#f6b97e" opacity="0.494"/><ellipse cx="1851.3" cy="788.7" rx="5.6" ry="0.47" fill="#ffd8a4" opacity="0.439"/><ellipse cx="1841.2" cy="789.3" rx="2.3" ry="0.50" fill="#f6b97e" opacity="0.419"/><ellipse cx="1823.1" cy="789.8" rx="5.1" ry="0.46" fill="#ffd8a4" opacity="0.492"/><ellipse cx="1831.3" cy="790.4" rx="4.8" ry="0.45" fill="#fff6e2" opacity="0.599"/><ellipse cx="1846.4" cy="791.1" rx="5.0" ry="0.48" fill="#ffd8a4" opacity="0.490"/><ellipse cx="1830.4" cy="791.7" rx="2.3" ry="0.45" fill="#ffc98c" opacity="0.552"/><ellipse cx="1847.6" cy="792.4" rx="5.7" ry="0.45" fill="#fff6e2" opacity="0.567"/><ellipse cx="1824.3" cy="793.1" rx="1.9" ry="0.55" fill="#fff6e2" opacity="0.589"/><ellipse cx="1845.1" cy="793.8" rx="2.0" ry="0.47" fill="#ffc98c" opacity="0.527"/><ellipse cx="1848.0" cy="794.6" rx="3.9" ry="0.45" fill="#f6b97e" opacity="0.314"/><ellipse cx="1860.4" cy="795.4" rx="3.5" ry="0.49" fill="#ffd8a4" opacity="0.261"/><ellipse cx="1830.6" cy="796.2" rx="6.0" ry="0.45" fill="#ffe9c2" opacity="0.350"/><ellipse cx="1835.1" cy="797.1" rx="4.4" ry="0.45" fill="#ffd8a4" opacity="0.266"/><ellipse cx="1833.6" cy="797.9" rx="3.4" ry="0.59" fill="#ffe9c2" opacity="0.311"/><ellipse cx="1824.7" cy="798.8" rx="5.2" ry="0.45" fill="#f6b97e" opacity="0.429"/><ellipse cx="1858.7" cy="799.7" rx="5.1" ry="0.45" fill="#ffc98c" opacity="0.418"/><ellipse cx="1834.6" cy="800.7" rx="5.5" ry="0.61" fill="#fff6e2" opacity="0.476"/><ellipse cx="1832.3" cy="801.6" rx="4.2" ry="0.64" fill="#fff6e2" opacity="0.417"/><ellipse cx="1820.0" cy="802.6" rx="4.9" ry="0.64" fill="#ffd8a4" opacity="0.466"/><ellipse cx="1832.6" cy="803.6" rx="4.1" ry="0.62" fill="#ffd8a4" opacity="0.330"/><ellipse cx="1831.0" cy="804.7" rx="3.4" ry="0.45" fill="#ffe9c2" opacity="0.229"/><ellipse cx="1838.0" cy="805.7" rx="2.1" ry="0.45" fill="#ffe9c2" opacity="0.215"/><ellipse cx="1824.1" cy="806.8" rx="4.6" ry="0.52" fill="#ffc98c" opacity="0.628"/><ellipse cx="1840.6" cy="807.9" rx="5.0" ry="0.52" fill="#ffc98c" opacity="0.205"/><ellipse cx="1824.7" cy="809.0" rx="5.8" ry="0.64" fill="#ffd8a4" opacity="0.325"/><ellipse cx="1830.7" cy="810.2" rx="3.0" ry="0.45" fill="#ffd8a4" opacity="0.205"/><ellipse cx="1836.3" cy="811.3" rx="7.8" ry="0.45" fill="#fff6e2" opacity="0.380"/><ellipse cx="1842.4" cy="812.5" rx="4.6" ry="0.50" fill="#ffc98c" opacity="0.569"/><ellipse cx="1852.2" cy="813.7" rx="3.6" ry="0.45" fill="#ffd8a4" opacity="0.226"/><ellipse cx="1852.3" cy="815.0" rx="2.9" ry="0.68" fill="#ffe9c2" opacity="0.457"/><ellipse cx="1849.7" cy="816.2" rx="8.4" ry="0.57" fill="#ffe9c2" opacity="0.284"/><ellipse cx="1840.0" cy="817.5" rx="6.2" ry="0.54" fill="#fff6e2" opacity="0.202"/><ellipse cx="1851.9" cy="818.8" rx="3.8" ry="0.45" fill="#ffe9c2" opacity="0.300"/><ellipse cx="1823.0" cy="820.1" rx="4.9" ry="0.45" fill="#f6b97e" opacity="0.281"/><ellipse cx="1827.0" cy="821.4" rx="6.0" ry="0.73" fill="#ffe9c2" opacity="0.532"/><ellipse cx="1824.3" cy="822.8" rx="5.8" ry="0.57" fill="#ffd8a4" opacity="0.193"/><ellipse cx="1835.4" cy="824.2" rx="9.1" ry="0.45" fill="#fff6e2" opacity="0.564"/><ellipse cx="1806.1" cy="825.6" rx="8.7" ry="0.45" fill="#ffd8a4" opacity="0.278"/><ellipse cx="1842.8" cy="827.0" rx="4.6" ry="0.47" fill="#ffd8a4" opacity="0.555"/><ellipse cx="1842.0" cy="828.4" rx="8.8" ry="0.45" fill="#ffe9c2" opacity="0.272"/><ellipse cx="1835.1" cy="829.9" rx="2.8" ry="0.49" fill="#f6b97e" opacity="0.451"/><ellipse cx="1837.4" cy="831.4" rx="8.6" ry="0.45" fill="#f6b97e" opacity="0.452"/><ellipse cx="1809.6" cy="832.9" rx="5.1" ry="0.78" fill="#ffe9c2" opacity="0.330"/><ellipse cx="1826.7" cy="834.4" rx="8.9" ry="0.78" fill="#ffe9c2" opacity="0.427"/><ellipse cx="1847.8" cy="835.9" rx="5.8" ry="0.79" fill="#ffd8a4" opacity="0.245"/><ellipse cx="1841.7" cy="837.5" rx="7.6" ry="0.73" fill="#ffe9c2" opacity="0.506"/><ellipse cx="1861.8" cy="839.1" rx="8.1" ry="0.72" fill="#f6b97e" opacity="0.397"/><ellipse cx="1848.4" cy="840.6" rx="9.8" ry="0.59" fill="#fff6e2" opacity="0.438"/><ellipse cx="1845.5" cy="842.3" rx="5.4" ry="0.80" fill="#fff6e2" opacity="0.602"/><ellipse cx="1824.0" cy="843.9" rx="4.3" ry="0.45" fill="#fff6e2" opacity="0.233"/><ellipse cx="1853.0" cy="845.5" rx="3.2" ry="0.85" fill="#ffe9c2" opacity="0.271"/><ellipse cx="1826.4" cy="847.2" rx="5.6" ry="0.77" fill="#ffd8a4" opacity="0.362"/><ellipse cx="1835.0" cy="848.9" rx="8.2" ry="0.45" fill="#ffe9c2" opacity="0.389"/><ellipse cx="1836.2" cy="850.6" rx="3.4" ry="0.85" fill="#f6b97e" opacity="0.419"/><ellipse cx="1835.0" cy="852.3" rx="9.3" ry="0.52" fill="#ffc98c" opacity="0.393"/><ellipse cx="1829.9" cy="854.1" rx="5.0" ry="0.76" fill="#ffe9c2" opacity="0.470"/><ellipse cx="1838.8" cy="855.8" rx="4.1" ry="0.83" fill="#ffd8a4" opacity="0.482"/><ellipse cx="1834.9" cy="857.6" rx="11.3" ry="0.70" fill="#ffe9c2" opacity="0.610"/><ellipse cx="1837.1" cy="859.4" rx="8.5" ry="0.84" fill="#ffe9c2" opacity="0.276"/><ellipse cx="1833.9" cy="861.2" rx="10.4" ry="0.51" fill="#fff6e2" opacity="0.298"/><ellipse cx="1809.0" cy="863.1" rx="9.7" ry="0.79" fill="#f6b97e" opacity="0.530"/><ellipse cx="1830.5" cy="864.9" rx="5.7" ry="0.56" fill="#ffc98c" opacity="0.314"/><ellipse cx="1848.4" cy="866.8" rx="6.8" ry="0.91" fill="#ffd8a4" opacity="0.231"/><ellipse cx="1827.5" cy="868.7" rx="4.9" ry="0.93" fill="#ffd8a4" opacity="0.345"/><ellipse cx="1840.8" cy="870.6" rx="4.3" ry="0.81" fill="#ffd8a4" opacity="0.462"/><ellipse cx="1807.0" cy="872.5" rx="7.2" ry="0.92" fill="#ffc98c" opacity="0.368"/><ellipse cx="1846.5" cy="874.4" rx="4.4" ry="0.76" fill="#f6b97e" opacity="0.242"/><ellipse cx="1834.8" cy="876.4" rx="4.8" ry="0.76" fill="#fff6e2" opacity="0.418"/><ellipse cx="1829.2" cy="878.4" rx="12.2" ry="0.92" fill="#ffd8a4" opacity="0.433"/><ellipse cx="1872.5" cy="880.4" rx="6.2" ry="0.45" fill="#f6b97e" opacity="0.372"/><ellipse cx="1815.6" cy="882.4" rx="7.0" ry="0.45" fill="#ffe9c2" opacity="0.212"/><ellipse cx="1816.2" cy="884.4" rx="8.8" ry="0.50" fill="#ffe9c2" opacity="0.479"/><ellipse cx="1794.3" cy="886.5" rx="5.8" ry="0.84" fill="#ffd8a4" opacity="0.329"/><ellipse cx="1851.5" cy="888.5" rx="6.2" ry="0.75" fill="#f6b97e" opacity="0.424"/><ellipse cx="1804.0" cy="890.6" rx="12.8" ry="0.54" fill="#fff6e2" opacity="0.253"/><ellipse cx="1802.5" cy="892.7" rx="13.1" ry="0.58" fill="#f6b97e" opacity="0.223"/><ellipse cx="1821.4" cy="894.8" rx="12.1" ry="0.71" fill="#ffe9c2" opacity="0.227"/><ellipse cx="1842.6" cy="896.9" rx="12.5" ry="0.95" fill="#fff6e2" opacity="0.381"/><ellipse cx="1784.4" cy="899.1" rx="12.1" ry="0.63" fill="#ffe9c2" opacity="0.379"/><ellipse cx="1819.0" cy="901.2" rx="13.5" ry="0.59" fill="#ffe9c2" opacity="0.257"/><ellipse cx="1826.0" cy="903.4" rx="15.9" ry="0.71" fill="#ffe9c2" opacity="0.346"/><ellipse cx="1847.8" cy="905.6" rx="6.8" ry="1.00" fill="#f6b97e" opacity="0.190"/><ellipse cx="1822.6" cy="907.8" rx="15.8" ry="1.11" fill="#fff6e2" opacity="0.267"/><ellipse cx="1829.5" cy="910.1" rx="12.9" ry="1.01" fill="#ffd8a4" opacity="0.418"/><ellipse cx="1813.2" cy="912.3" rx="6.4" ry="0.76" fill="#ffe9c2" opacity="0.339"/><ellipse cx="1814.9" cy="914.6" rx="10.1" ry="0.83" fill="#ffd8a4" opacity="0.233"/><ellipse cx="1824.0" cy="916.8" rx="9.0" ry="0.86" fill="#ffc98c" opacity="0.246"/><ellipse cx="1876.1" cy="919.1" rx="7.9" ry="1.03" fill="#fff6e2" opacity="0.364"/><ellipse cx="1839.5" cy="921.5" rx="17.9" ry="0.93" fill="#ffc98c" opacity="0.511"/><ellipse cx="1843.7" cy="923.8" rx="15.1" ry="0.49" fill="#ffe9c2" opacity="0.551"/><ellipse cx="1860.5" cy="926.1" rx="13.0" ry="1.15" fill="#ffc98c" opacity="0.403"/><ellipse cx="1811.4" cy="928.5" rx="14.5" ry="0.56" fill="#fff6e2" opacity="0.426"/><ellipse cx="1873.3" cy="930.9" rx="6.5" ry="0.78" fill="#ffe9c2" opacity="0.538"/><ellipse cx="1779.8" cy="933.3" rx="8.8" ry="1.06" fill="#ffe9c2" opacity="0.221"/><ellipse cx="1864.9" cy="935.7" rx="9.4" ry="1.14" fill="#f6b97e" opacity="0.461"/><ellipse cx="1848.2" cy="938.1" rx="9.2" ry="1.25" fill="#fff6e2" opacity="0.438"/><ellipse cx="1817.7" cy="940.5" rx="13.2" ry="0.77" fill="#f6b97e" opacity="0.404"/><ellipse cx="1800.9" cy="943.0" rx="12.8" ry="0.54" fill="#ffc98c" opacity="0.497"/><ellipse cx="1846.7" cy="945.5" rx="16.3" ry="0.96" fill="#ffc98c" opacity="0.326"/><ellipse cx="1905.5" cy="947.9" rx="14.1" ry="0.65" fill="#ffd8a4" opacity="0.499"/><ellipse cx="1825.1" cy="950.4" rx="6.9" ry="0.66" fill="#ffd8a4" opacity="0.375"/><ellipse cx="1817.6" cy="953.0" rx="8.3" ry="0.96" fill="#ffd8a4" opacity="0.477"/><ellipse cx="1863.4" cy="955.5" rx="20.1" ry="0.77" fill="#f6b97e" opacity="0.521"/><ellipse cx="1908.3" cy="958.0" rx="21.7" ry="1.18" fill="#fff6e2" opacity="0.376"/><ellipse cx="1856.1" cy="960.6" rx="21.4" ry="0.91" fill="#fff6e2" opacity="0.291"/><ellipse cx="1805.9" cy="963.2" rx="20.0" ry="0.88" fill="#fff6e2" opacity="0.534"/><ellipse cx="1762.9" cy="965.8" rx="13.3" ry="0.64" fill="#fff6e2" opacity="0.349"/><ellipse cx="1825.2" cy="968.4" rx="8.1" ry="1.39" fill="#fff6e2" opacity="0.362"/><ellipse cx="1856.7" cy="971.0" rx="16.8" ry="0.91" fill="#ffc98c" opacity="0.389"/><ellipse cx="1848.1" cy="973.7" rx="7.1" ry="1.03" fill="#f6b97e" opacity="0.299"/><ellipse cx="1828.5" cy="976.3" rx="11.0" ry="1.42" fill="#ffd8a4" opacity="0.309"/><ellipse cx="1903.7" cy="979.0" rx="20.8" ry="1.12" fill="#ffe9c2" opacity="0.289"/><ellipse cx="1827.3" cy="981.7" rx="22.2" ry="1.34" fill="#f6b97e" opacity="0.187"/><ellipse cx="1830.6" cy="984.4" rx="12.9" ry="1.38" fill="#f6b97e" opacity="0.313"/><ellipse cx="1863.0" cy="987.1" rx="9.0" ry="1.23" fill="#f6b97e" opacity="0.447"/><ellipse cx="1803.9" cy="989.9" rx="12.2" ry="0.72" fill="#ffd8a4" opacity="0.488"/><ellipse cx="1870.0" cy="992.6" rx="20.0" ry="0.61" fill="#ffd8a4" opacity="0.218"/><ellipse cx="1847.9" cy="995.4" rx="16.1" ry="1.07" fill="#ffc98c" opacity="0.184"/><ellipse cx="1799.5" cy="998.1" rx="10.1" ry="0.64" fill="#f6b97e" opacity="0.170"/><ellipse cx="1828.0" cy="1000.9" rx="16.2" ry="0.79" fill="#fff6e2" opacity="0.358"/><ellipse cx="1847.1" cy="1003.8" rx="7.2" ry="1.38" fill="#ffe9c2" opacity="0.389"/><ellipse cx="1843.0" cy="1006.6" rx="12.7" ry="1.25" fill="#ffc98c" opacity="0.438"/><ellipse cx="1788.4" cy="1009.4" rx="8.4" ry="1.48" fill="#ffd8a4" opacity="0.272"/><ellipse cx="1847.3" cy="1012.3" rx="12.6" ry="0.84" fill="#ffc98c" opacity="0.350"/><ellipse cx="1838.6" cy="1015.1" rx="9.3" ry="1.54" fill="#ffd8a4" opacity="0.247"/><ellipse cx="1817.7" cy="1018.0" rx="11.1" ry="1.41" fill="#ffc98c" opacity="0.447"/><ellipse cx="1843.6" cy="1020.9" rx="11.6" ry="1.00" fill="#ffe9c2" opacity="0.340"/><ellipse cx="1864.1" cy="1023.8" rx="16.4" ry="1.10" fill="#fff6e2" opacity="0.194"/><ellipse cx="1866.6" cy="1026.8" rx="27.4" ry="1.07" fill="#ffc98c" opacity="0.285"/><ellipse cx="1841.6" cy="1029.7" rx="12.2" ry="1.44" fill="#ffe9c2" opacity="0.361"/><ellipse cx="1836.4" cy="1032.7" rx="21.3" ry="1.34" fill="#f6b97e" opacity="0.237"/><ellipse cx="1838.2" cy="1035.6" rx="10.2" ry="0.81" fill="#ffc98c" opacity="0.166"/><ellipse cx="1770.3" cy="1038.6" rx="15.2" ry="1.48" fill="#ffd8a4" opacity="0.213"/><ellipse cx="1900.5" cy="1041.6" rx="20.2" ry="1.15" fill="#f6b97e" opacity="0.327"/><ellipse cx="1766.7" cy="1044.6" rx="23.0" ry="1.32" fill="#ffd8a4" opacity="0.389"/><ellipse cx="1838.0" cy="1047.7" rx="23.0" ry="1.03" fill="#ffd8a4" opacity="0.168"/><ellipse cx="1895.7" cy="1050.7" rx="17.3" ry="1.16" fill="#ffc98c" opacity="0.193"/><ellipse cx="1843.1" cy="1053.8" rx="26.5" ry="0.99" fill="#f6b97e" opacity="0.406"/><ellipse cx="1808.7" cy="1056.9" rx="21.9" ry="1.69" fill="#fff6e2" opacity="0.374"/><ellipse cx="1831.6" cy="1059.9" rx="26.8" ry="1.59" fill="#ffd8a4" opacity="0.364"/><ellipse cx="1837.4" cy="1063.0" rx="14.3" ry="1.83" fill="#ffe9c2" opacity="0.308"/><ellipse cx="1839.1" cy="1066.2" rx="22.6" ry="1.61" fill="#ffd8a4" opacity="0.464"/><ellipse cx="1920.2" cy="1069.3" rx="27.9" ry="1.75" fill="#fff6e2" opacity="0.464"/><ellipse cx="1746.2" cy="1072.4" rx="30.6" ry="1.13" fill="#f6b97e" opacity="0.279"/><ellipse cx="1874.7" cy="1075.6" rx="13.0" ry="0.78" fill="#ffd8a4" opacity="0.414"/><ellipse cx="1700.1" cy="1078.8" rx="16.1" ry="1.76" fill="#ffc98c" opacity="0.364"/><ellipse cx="1796.7" cy="1082.0" rx="23.9" ry="1.60" fill="#ffe9c2" opacity="0.193"/><ellipse cx="1908.1" cy="1085.2" rx="23.6" ry="1.54" fill="#ffd8a4" opacity="0.274"/><ellipse cx="1846.2" cy="1088.4" rx="29.7" ry="1.06" fill="#fff6e2" opacity="0.150"/><ellipse cx="1812.6" cy="1091.6" rx="21.3" ry="1.16" fill="#ffe9c2" opacity="0.279"/><ellipse cx="1831.9" cy="1094.9" rx="17.2" ry="2.02" fill="#f6b97e" opacity="0.280"/><ellipse cx="1812.3" cy="1098.1" rx="22.3" ry="1.08" fill="#ffe9c2" opacity="0.272"/><ellipse cx="1980.9" cy="1101.4" rx="27.6" ry="1.48" fill="#fff6e2" opacity="0.251"/><ellipse cx="1857.4" cy="1104.7" rx="13.0" ry="0.93" fill="#ffe9c2" opacity="0.302"/><ellipse cx="1980.1" cy="1108.0" rx="26.1" ry="2.05" fill="#fff6e2" opacity="0.200"/><ellipse cx="1736.8" cy="1111.3" rx="22.1" ry="1.65" fill="#ffc98c" opacity="0.312"/><ellipse cx="1792.6" cy="1114.6" rx="28.1" ry="1.35" fill="#ffd8a4" opacity="0.386"/><ellipse cx="1865.1" cy="1118.0" rx="33.1" ry="1.14" fill="#ffd8a4" opacity="0.294"/><ellipse cx="1883.0" cy="1121.3" rx="36.3" ry="1.55" fill="#ffe9c2" opacity="0.276"/><ellipse cx="1856.0" cy="1124.7" rx="20.9" ry="1.75" fill="#ffc98c" opacity="0.137"/><ellipse cx="1754.2" cy="1128.1" rx="30.7" ry="1.56" fill="#f6b97e" opacity="0.404"/><ellipse cx="1784.9" cy="1131.5" rx="14.3" ry="1.12" fill="#ffc98c" opacity="0.438"/><ellipse cx="1804.9" cy="1134.9" rx="13.8" ry="0.88" fill="#ffc98c" opacity="0.268"/><ellipse cx="1965.9" cy="1138.3" rx="37.0" ry="1.01" fill="#ffe9c2" opacity="0.335"/><ellipse cx="1886.9" cy="1141.7" rx="35.6" ry="0.90" fill="#fff6e2" opacity="0.317"/><ellipse cx="1826.3" cy="1145.2" rx="35.6" ry="1.04" fill="#ffe9c2" opacity="0.216"/><ellipse cx="1775.5" cy="1148.7" rx="21.1" ry="1.52" fill="#ffc98c" opacity="0.332"/><ellipse cx="1801.6" cy="1152.1" rx="17.8" ry="1.11" fill="#f6b97e" opacity="0.280"/><ellipse cx="1893.6" cy="1155.6" rx="26.3" ry="1.39" fill="#f6b97e" opacity="0.314"/><ellipse cx="1853.2" cy="1159.1" rx="26.7" ry="1.83" fill="#ffd8a4" opacity="0.306"/><ellipse cx="1884.2" cy="1162.7" rx="40.2" ry="0.94" fill="#ffd8a4" opacity="0.164"/><ellipse cx="1844.2" cy="1166.2" rx="16.2" ry="1.91" fill="#fff6e2" opacity="0.369"/><ellipse cx="1860.0" cy="1169.7" rx="26.0" ry="1.73" fill="#f6b97e" opacity="0.235"/><ellipse cx="1810.0" cy="1173.3" rx="22.1" ry="1.76" fill="#f6b97e" opacity="0.389"/><ellipse cx="1850.7" cy="1176.9" rx="42.8" ry="1.86" fill="#ffc98c" opacity="0.352"/><ellipse cx="1722.5" cy="1180.5" rx="40.8" ry="2.11" fill="#ffc98c" opacity="0.262"/><ellipse cx="1759.4" cy="1184.1" rx="40.9" ry="1.58" fill="#ffc98c" opacity="0.237"/><ellipse cx="1724.6" cy="1187.7" rx="23.4" ry="2.13" fill="#fff6e2" opacity="0.302"/><ellipse cx="1755.1" cy="1191.3" rx="15.9" ry="2.46" fill="#ffe9c2" opacity="0.390"/><ellipse cx="1802.1" cy="1195.0" rx="32.7" ry="1.15" fill="#f6b97e" opacity="0.279"/><ellipse cx="1831.9" cy="1198.6" rx="40.4" ry="2.19" fill="#fff6e2" opacity="0.369"/><ellipse cx="1707.6" cy="1202.3" rx="14.9" ry="1.08" fill="#ffd8a4" opacity="0.180"/><ellipse cx="1924.1" cy="1206.0" rx="21.7" ry="1.74" fill="#fff6e2" opacity="0.193"/><ellipse cx="1843.2" cy="1209.7" rx="16.2" ry="2.03" fill="#fff6e2" opacity="0.151"/><ellipse cx="1987.1" cy="1213.4" rx="37.6" ry="1.53" fill="#fff6e2" opacity="0.331"/><ellipse cx="1736.3" cy="1217.1" rx="30.6" ry="2.09" fill="#f6b97e" opacity="0.280"/><ellipse cx="1910.1" cy="1220.8" rx="21.8" ry="1.83" fill="#ffd8a4" opacity="0.379"/><ellipse cx="1801.8" cy="1224.6" rx="28.8" ry="2.36" fill="#ffd8a4" opacity="0.217"/><ellipse cx="1884.0" cy="1228.3" rx="30.2" ry="2.61" fill="#fff6e2" opacity="0.359"/><ellipse cx="1889.4" cy="1232.1" rx="48.2" ry="1.96" fill="#fff6e2" opacity="0.319"/><ellipse cx="1857.7" cy="1235.9" rx="17.2" ry="1.77" fill="#fff6e2" opacity="0.170"/><ellipse cx="1846.3" cy="1239.7" rx="41.7" ry="1.91" fill="#fff6e2" opacity="0.264"/><ellipse cx="1803.3" cy="1243.5" rx="36.4" ry="2.31" fill="#ffe9c2" opacity="0.247"/><ellipse cx="1715.1" cy="1247.3" rx="13.7" ry="1.18" fill="#fff6e2" opacity="0.136"/><ellipse cx="1897.9" cy="1251.2" rx="18.8" ry="1.75" fill="#ffc98c" opacity="0.350"/><ellipse cx="1694.1" cy="1255.0" rx="23.8" ry="2.02" fill="#ffe9c2" opacity="0.336"/><ellipse cx="1719.7" cy="1258.9" rx="39.8" ry="1.73" fill="#ffd8a4" opacity="0.137"/><ellipse cx="1930.2" cy="1262.8" rx="51.1" ry="2.51" fill="#f6b97e" opacity="0.119"/><ellipse cx="1963.5" cy="1266.7" rx="26.3" ry="1.73" fill="#ffd8a4" opacity="0.237"/><ellipse cx="1967.2" cy="1270.6" rx="45.9" ry="2.24" fill="#ffc98c" opacity="0.244"/><ellipse cx="1871.5" cy="1274.5" rx="31.4" ry="1.54" fill="#ffc98c" opacity="0.206"/><ellipse cx="2067.2" cy="1278.4" rx="26.7" ry="1.30" fill="#fff6e2" opacity="0.294"/><ellipse cx="1798.7" cy="1282.4" rx="37.2" ry="2.68" fill="#ffe9c2" opacity="0.110"/><ellipse cx="1752.1" cy="1286.3" rx="45.7" ry="2.58" fill="#ffd8a4" opacity="0.104"/><ellipse cx="1797.9" cy="1290.3" rx="38.6" ry="2.21" fill="#f6b97e" opacity="0.164"/><ellipse cx="1914.5" cy="1294.3" rx="30.6" ry="1.55" fill="#f6b97e" opacity="0.316"/><ellipse cx="1753.7" cy="1298.3" rx="17.0" ry="1.59" fill="#ffd8a4" opacity="0.273"/><ellipse cx="1738.4" cy="1302.3" rx="46.3" ry="2.07" fill="#ffc98c" opacity="0.145"/><ellipse cx="1813.1" cy="1306.3" rx="50.8" ry="1.49" fill="#ffd8a4" opacity="0.295"/><ellipse cx="1976.6" cy="1310.3" rx="22.7" ry="1.56" fill="#f6b97e" opacity="0.237"/><ellipse cx="1942.0" cy="1314.4" rx="42.6" ry="1.51" fill="#fff6e2" opacity="0.143"/><ellipse cx="1737.9" cy="1318.5" rx="55.8" ry="1.41" fill="#ffc98c" opacity="0.279"/><ellipse cx="1851.6" cy="1322.5" rx="19.0" ry="1.70" fill="#ffc98c" opacity="0.193"/><ellipse cx="1707.5" cy="1326.6" rx="24.2" ry="1.38" fill="#f6b97e" opacity="0.151"/><ellipse cx="1860.4" cy="1330.7" rx="50.6" ry="2.37" fill="#fff6e2" opacity="0.182"/><ellipse cx="2088.6" cy="1334.8" rx="54.8" ry="2.22" fill="#ffc98c" opacity="0.188"/><ellipse cx="1545.0" cy="1338.9" rx="30.9" ry="1.24" fill="#ffe9c2" opacity="0.181"/><ellipse cx="1586.0" cy="1343.1" rx="54.7" ry="1.47" fill="#ffe9c2" opacity="0.238"/><ellipse cx="1972.4" cy="1347.2" rx="22.2" ry="3.18" fill="#fff6e2" opacity="0.228"/><ellipse cx="1885.3" cy="1351.4" rx="20.9" ry="1.88" fill="#ffe9c2" opacity="0.165"/><ellipse cx="1900.4" cy="1355.6" rx="35.3" ry="1.50" fill="#fff6e2" opacity="0.196"/><ellipse cx="1802.0" cy="1359.8" rx="40.7" ry="2.67" fill="#ffd8a4" opacity="0.244"/><ellipse cx="1930.8" cy="1364.0" rx="58.0" ry="2.83" fill="#ffd8a4" opacity="0.223"/><ellipse cx="1954.2" cy="1368.2" rx="45.2" ry="2.27" fill="#ffe9c2" opacity="0.237"/><ellipse cx="1801.7" cy="1372.4" rx="30.0" ry="3.32" fill="#ffd8a4" opacity="0.146"/><ellipse cx="1835.3" cy="1376.6" rx="31.1" ry="2.26" fill="#ffc98c" opacity="0.259"/><ellipse cx="1913.8" cy="1380.9" rx="33.7" ry="1.52" fill="#ffe9c2" opacity="0.216"/><ellipse cx="1950.8" cy="1385.1" rx="46.3" ry="3.01" fill="#ffe9c2" opacity="0.212"/><ellipse cx="1922.3" cy="1389.4" rx="54.6" ry="2.84" fill="#fff6e2" opacity="0.161"/><ellipse cx="1548.2" cy="1393.7" rx="29.3" ry="1.36" fill="#ffd8a4" opacity="0.253"/><ellipse cx="1674.5" cy="1398.0" rx="56.7" ry="2.45" fill="#ffc98c" opacity="0.083"/><ellipse cx="1677.3" cy="1402.3" rx="22.6" ry="3.38" fill="#ffc98c" opacity="0.210"/><ellipse cx="1995.1" cy="1406.6" rx="48.8" ry="3.04" fill="#f6b97e" opacity="0.121"/><ellipse cx="1975.0" cy="1411.0" rx="48.6" ry="2.67" fill="#ffc98c" opacity="0.194"/><ellipse cx="1609.8" cy="1415.3" rx="18.9" ry="3.52" fill="#f6b97e" opacity="0.180"/><ellipse cx="2076.7" cy="1419.7" rx="60.8" ry="2.36" fill="#ffc98c" opacity="0.246"/><ellipse cx="1974.0" cy="1424.1" rx="28.3" ry="1.96" fill="#ffd8a4" opacity="0.083"/><ellipse cx="1816.8" cy="1428.5" rx="51.9" ry="1.53" fill="#ffe9c2" opacity="0.207"/><ellipse cx="1714.2" cy="1432.9" rx="29.7" ry="2.53" fill="#ffc98c" opacity="0.103"/><ellipse cx="1742.0" cy="1437.3" rx="62.4" ry="3.13" fill="#f6b97e" opacity="0.227"/><ellipse cx="1813.8" cy="1441.7" rx="50.5" ry="2.37" fill="#fff6e2" opacity="0.225"/><ellipse cx="2072.5" cy="1446.1" rx="50.2" ry="1.98" fill="#ffe9c2" opacity="0.088"/><ellipse cx="1627.7" cy="1450.6" rx="57.7" ry="3.12" fill="#ffe9c2" opacity="0.115"/><ellipse cx="1736.2" cy="1455.0" rx="66.1" ry="2.87" fill="#fff6e2" opacity="0.141"/><ellipse cx="2188.4" cy="1459.5" rx="19.6" ry="1.62" fill="#ffc98c" opacity="0.177"/><ellipse cx="1834.4" cy="1464.0" rx="66.9" ry="3.64" fill="#fff6e2" opacity="0.145"/><ellipse cx="1920.6" cy="1468.5" rx="61.6" ry="1.54" fill="#ffe9c2" opacity="0.196"/><ellipse cx="1527.6" cy="1473.0" rx="33.5" ry="1.72" fill="#ffc98c" opacity="0.127"/></g>

  <g transform="translate(0 2012) scale(1 -0.6)" filter="url(#refl)" opacity=".46">
    <path d="M 1470.0 911.6 C 1520.8 899.8 1600.7 893.9 1716.8 895.1 C 1876.6 896.3 2050.8 901.0 2185.1 908.1 C 2197.5 923.4 2198.9 975.3 2192.4 995.4 C 2007.2 1008.4 1716.8 1009.5 1549.9 991.8 C 1495.4 977.7 1472.9 944.6 1470.0 911.6 Z" fill="#131924"/><path d="M 1713.2 895.1 C 1725.6 859.7 1744.4 844.3 1778.5 842.0 L 1865.7 844.3 C 1880.9 856.1 1886.0 882.1 1886.0 893.9 Z" fill="#131924"/><path d="M 1905.6 896.3 C 1978.2 886.8 2079.8 888.0 2145.2 899.8 C 2079.8 902.2 1978.2 901.0 1905.6 896.3 Z" fill="#131924"/>
  </g>
  <g opacity=".55">
    <rect x="1410" y="1036" width="906" height="2.6" fill="#f0cda2" opacity=".3"/>
    <rect x="1540" y="1072" width="686" height="3.2" fill="#e0c4a2" opacity=".2"/>
    <rect x="1350" y="1124" width="1026" height="4.2" fill="#cdb79d" opacity=".14"/>
  </g>

  <g>
    <ellipse cx="1833.0" cy="1012" rx="399.3" ry="11" fill="#0b111b" opacity=".6" filter="url(#b8)"/>
    <path d="M 1470.0 911.6 C 1520.8 899.8 1600.7 893.9 1716.8 895.1 C 1876.6 896.3 2050.8 901.0 2185.1 908.1 C 2197.5 923.4 2198.9 975.3 2192.4 995.4 C 2007.2 1008.4 1716.8 1009.5 1549.9 991.8 C 1495.4 977.7 1472.9 944.6 1470.0 911.6 Z" fill="url(#hullg)"/>
    <path d="M 1470.0 911.6 C 1520.8 899.8 1600.7 893.9 1716.8 895.1 C 1876.6 896.3 2050.8 901.0 2185.1 908.1 C 2197.5 923.4 2198.9 975.3 2192.4 995.4 C 2007.2 1008.4 1716.8 1009.5 1549.9 991.8 C 1495.4 977.7 1472.9 944.6 1470.0 911.6 Z" fill="url(#hulllight)"/>
    <path d="M 1470.0 911.6 C 1520.8 899.8 1600.7 893.9 1716.8 895.1 C 1876.6 896.3 2050.8 901.0 2185.1 908.1 L 2185.1 912.8 C 1905.6 908.1 1644.2 905.7 1513.6 911.6 Z" fill="url(#deckg)"/>
    <path d="M 1513.6 906.9 C 1644.2 901.0 1905.6 903.3 2174.2 914.0" fill="none" stroke="#f0c592" stroke-width="1.2" opacity=".3"/>
    <path d="M 1905.6 896.3 C 1978.2 886.8 2079.8 888.0 2145.2 899.8 C 2079.8 902.2 1978.2 901.0 1905.6 896.3 Z" fill="#cdbba4" opacity=".28"/>
    <path d="M 1713.2 895.1 C 1725.6 859.7 1744.4 844.3 1778.5 842.0 L 1865.7 844.3 C 1880.9 856.1 1886.0 882.1 1886.0 893.9 Z" fill="#1d232e" opacity=".9"/>
    <path d="M 1713.2 895.1 C 1725.6 859.7 1744.4 844.3 1778.5 842.0 L 1865.7 844.3 C 1880.9 856.1 1886.0 882.1 1886.0 893.9 Z" fill="url(#glassg)" opacity=".72"/>
    <path d="M 1713.2 895.1 C 1725.6 859.7 1744.4 844.3 1778.5 842.0 L 1865.7 844.3 C 1880.9 856.1 1886.0 882.1 1886.0 893.9 Z" fill="none" stroke="url(#rim)" stroke-width="2.2"/>
    <path d="M 1887.5 896.3 C 1905.6 883.3 1927.4 879.7 1949.2 880.9 L 1949.2 897.4 Z" fill="#0e131b" opacity=".82"/>
    <line x1="1800" y1="843" x2="1800" y2="894" stroke="#e9cfa8" stroke-width="1.5" opacity=".35"/>
    <path d="M 1535.3 980.0 C 1716.8 987.1 1992.7 988.3 2188.7 983.6" fill="none" stroke="url(#rim)" stroke-width="2.6" opacity=".5"/>
    <path d="M 1470.0 911.6 C 1520.8 899.8 1600.7 893.9 1716.8 895.1 C 1876.6 896.3 2050.8 901.0 2185.1 908.1" fill="none" stroke="url(#rim)" stroke-width="3.2"/>
    <path d="M 1470.0 911.6 C 1520.8 899.8 1600.7 893.9 1716.8 895.1 C 1876.6 896.3 2050.8 901.0 2185.1 908.1" fill="none" stroke="url(#rim)" stroke-width="1.2" opacity=".8"/>
    <circle cx="1485" cy="907" r="2.6" fill="#fff2d4" opacity=".7"/>
    <path d="M 2185.1 908.1 C 2197.5 935.2 2198.9 973.0 2192.4 993.0" fill="none" stroke="#ffe9c6" stroke-width="2.2" opacity=".5"/>
    <line x1="2189" y1="908" x2="2192" y2="857" stroke="#e8d6b8" stroke-width="1.6" opacity=".5"/>
    <path d="M 2196 1004 C 2370 1013 2559 1021 2690 1032"
          fill="none" stroke="#f0d8b6" stroke-width="3.4" opacity=".26" filter="url(#b2)"/>
    <path d="M 1470 999 C 1325 1008 1165 1015 1020 1025"
          fill="none" stroke="#dcc7ab" stroke-width="2.6" opacity=".2" filter="url(#b2)"/>
  </g>

  <rect x="0" y="1080" width="2560" height="360" fill="url(#fgfall)"/>
</g>

<rect width="2560" height="1440" fill="url(#leftfall)"/>
<rect width="2560" height="1440" fill="url(#vig)"/>
<ellipse cx="1836.0" cy="736.0" rx="1080" ry="620" fill="url(#glowB)" opacity=".45" style="mix-blend-mode:screen"/>
<rect width="2560" height="1440" filter="url(#grain)" opacity=".14" style="mix-blend-mode:overlay"/>
</svg>